<?xml version="1.0" standalone="no"?>
<!DOCTYPE svg PUBLIC "-//W3C//DTD SVG 20010904//EN"
 "http://www.w3.org/TR/2001/REC-SVG-20010904/DTD/svg10.dtd">
<svg version="1.0" xmlns="http://www.w3.org/2000/svg"
 width="261.000000pt" height="284.000000pt" viewBox="0 0 261.000000 284.000000"
 preserveAspectRatio="xMidYMid meet">

<g transform="translate(0.000000,284.000000) scale(0.100000,-0.100000)"
fill="#000000" stroke="none">
<path d="M166 2518 c4 -7 205 -293 447 -635 241 -343 437 -627 435 -632 -1 -5
-178 -211 -393 -457 -214 -246 -405 -464 -423 -485 l-34 -39 99 0 98 0 374
430 c206 237 377 427 381 423 4 -4 33 -46 66 -93 127 -184 517 -736 528 -748
9 -9 90 -12 359 -10 l346 3 -431 610 c-236 336 -443 628 -458 651 l-28 40 413
475 413 474 -96 3 c-85 2 -98 1 -112 -17 -17 -22 -664 -766 -690 -794 -15 -17
-33 6 -309 398 l-293 415 -350 0 c-277 0 -348 -3 -342 -12z m467 -138 l152 0
121 -173 c67 -94 376 -533 688 -975 311 -441 566 -805 566 -807 0 -3 -76 -5
-168 -5 l-168 0 -329 467 c-182 257 -493 698 -691 980 -199 281 -359 515 -356
518 3 3 12 3 20 0 7 -3 82 -5 165 -5z"/>
</g>
</svg>
