<svg width="350" height="350" viewBox="0 0 350 350" fill="none" xmlns="http://www.w3.org/2000/svg">
<g filter="url(#filter0_i_474_2)">
<path d="M350 175C350 271.65 271.65 350 175 350C78.3502 350 6.10352e-05 271.65 6.10352e-05 175C6.10352e-05 78.3502 78.3502 0 175 0C271.65 0 350 78.3502 350 175ZM41.4029 175C41.4029 248.784 101.216 308.597 175 308.597C248.784 308.597 308.597 248.784 308.597 175C308.597 101.216 248.784 41.4029 175 41.4029C101.216 41.4029 41.4029 101.216 41.4029 175Z" fill="#F1F5EE"/>
</g>
<g filter="url(#filter1_i_474_2)">
<path d="M350 175C350 271.65 271.65 350 175 350C78.3502 350 6.10352e-05 271.65 6.10352e-05 175C6.10352e-05 78.3502 78.3502 0 175 0C271.65 0 350 78.3502 350 175ZM41.4029 175C41.4029 248.784 101.216 308.597 175 308.597C248.784 308.597 308.597 248.784 308.597 175C308.597 101.216 248.784 41.4029 175 41.4029C101.216 41.4029 41.4029 101.216 41.4029 175Z" fill="#F1F5EE"/>
</g>
<path d="M175 20.7014C175 9.26835 184.301 -0.126417 195.654 1.22291C223.952 4.58614 251.112 14.8252 274.703 31.1798C298.295 47.5344 317.411 69.3767 330.488 94.6965C335.734 104.855 330.199 116.86 319.493 120.871V120.871C308.786 124.882 296.99 119.345 291.375 109.386C281.507 91.8849 267.772 76.7536 251.115 65.2059C234.458 53.6583 215.47 46.1044 195.619 43.0035C184.323 41.2389 175 32.1345 175 20.7014V20.7014Z" fill="#FF5656"/>
<path d="M175 20.7014C175 9.26835 184.301 -0.126417 195.654 1.22291C223.952 4.58614 251.112 14.8252 274.703 31.1798C298.295 47.5344 317.411 69.3767 330.488 94.6965C335.734 104.855 330.199 116.86 319.493 120.871V120.871C308.786 124.882 296.99 119.345 291.375 109.386C281.507 91.8849 267.772 76.7536 251.115 65.2059C234.458 53.6583 215.47 46.1044 195.619 43.0035C184.323 41.2389 175 32.1345 175 20.7014V20.7014Z" fill="#FF5656"/>
<path d="M175 20.7014C175 9.26835 184.301 -0.126417 195.654 1.22291C223.952 4.58614 251.112 14.8252 274.703 31.1798C298.295 47.5344 317.411 69.3767 330.488 94.6965C335.734 104.855 330.199 116.86 319.493 120.871V120.871C308.786 124.882 296.99 119.345 291.375 109.386C281.507 91.8849 267.772 76.7536 251.115 65.2059C234.458 53.6583 215.47 46.1044 195.619 43.0035C184.323 41.2389 175 32.1345 175 20.7014V20.7014Z" fill="#FF5656"/>
<path d="M175 20.7014C175 9.26835 184.301 -0.126417 195.654 1.22291C223.952 4.58614 251.112 14.8252 274.703 31.1798C298.295 47.5344 317.411 69.3767 330.488 94.6965C335.734 104.855 330.199 116.86 319.493 120.871V120.871C308.786 124.882 296.99 119.345 291.375 109.386C281.507 91.8849 267.772 76.7536 251.115 65.2059C234.458 53.6583 215.47 46.1044 195.619 43.0035C184.323 41.2389 175 32.1345 175 20.7014V20.7014Z" fill="#FF5656"/>
<path d="M175 20.7014C175 9.26835 184.301 -0.126417 195.654 1.22291C223.952 4.58614 251.112 14.8252 274.703 31.1798C298.295 47.5344 317.411 69.3767 330.488 94.6965C335.734 104.855 330.199 116.86 319.493 120.871V120.871C308.786 124.882 296.99 119.345 291.375 109.386C281.507 91.8849 267.772 76.7536 251.115 65.2059C234.458 53.6583 215.47 46.1044 195.619 43.0035C184.323 41.2389 175 32.1345 175 20.7014V20.7014Z" fill="#FF5656"/>
<path d="M175 20.7014C175 9.26835 184.301 -0.126417 195.654 1.22291C223.952 4.58614 251.112 14.8252 274.703 31.1798C298.295 47.5344 317.411 69.3767 330.488 94.6965C335.734 104.855 330.199 116.86 319.493 120.871V120.871C308.786 124.882 296.99 119.345 291.375 109.386C281.507 91.8849 267.772 76.7536 251.115 65.2059C234.458 53.6583 215.47 46.1044 195.619 43.0035C184.323 41.2389 175 32.1345 175 20.7014V20.7014Z" fill="#FF5656"/>
<path d="M175 20.7014C175 9.26835 184.301 -0.126417 195.654 1.22291C223.952 4.58614 251.112 14.8252 274.703 31.1798C298.295 47.5344 317.411 69.3767 330.488 94.6965C335.734 104.855 330.199 116.86 319.493 120.871V120.871C308.786 124.882 296.99 119.345 291.375 109.386C281.507 91.8849 267.772 76.7536 251.115 65.2059C234.458 53.6583 215.47 46.1044 195.619 43.0035C184.323 41.2389 175 32.1345 175 20.7014V20.7014Z" fill="#FF5656"/>
<path d="M175 20.7014C175 9.26835 184.301 -0.126384 195.654 1.22296C221.314 4.27268 246.07 12.9795 268.096 26.817C295.986 44.3388 318.364 69.3757 332.659 99.0491C346.954 128.723 352.585 161.828 348.904 194.559C345.222 227.29 332.379 258.317 311.85 284.074C291.321 309.831 263.94 329.271 232.854 340.16C201.769 351.049 168.242 352.944 136.128 345.628C104.013 338.312 74.6157 322.081 51.3146 298.802C32.913 280.418 18.9037 258.227 10.2075 233.894C6.35988 223.127 13.4435 211.966 24.5886 209.416V209.416C35.7336 206.865 46.6881 213.923 50.9278 224.541C57.6286 241.322 67.6924 256.639 80.5771 269.512C98.3654 287.283 120.808 299.674 145.324 305.26C169.841 310.845 195.436 309.398 219.167 301.085C242.898 292.773 263.801 277.931 279.473 258.268C295.145 238.605 304.95 214.918 307.76 189.931C310.57 164.944 306.272 139.671 295.359 117.018C284.446 94.3651 267.362 75.2516 246.07 61.8753C230.648 52.1864 213.472 45.7925 195.619 43.0035C184.323 41.2389 175 32.1345 175 20.7014V20.7014Z" fill="#FF5656"/>
<path d="M111.72 225.92C107.026 225.92 102.653 224.96 98.5995 223.04C94.5462 221.077 91.0475 218.389 88.1035 214.976C85.2022 211.563 83.1115 207.595 81.8315 203.072L96.6795 199.104C97.2768 201.579 98.3648 203.712 99.9435 205.504C101.565 207.296 103.442 208.683 105.576 209.664C107.752 210.645 109.992 211.136 112.296 211.136C115.282 211.136 118.013 210.411 120.488 208.96C122.962 207.509 124.925 205.568 126.376 203.136C127.826 200.661 128.552 197.931 128.552 194.944C128.552 191.957 127.805 189.248 126.312 186.816C124.861 184.341 122.898 182.4 120.424 180.992C117.949 179.541 115.24 178.816 112.296 178.816C108.754 178.816 105.81 179.456 103.464 180.736C101.16 182.016 99.3888 183.381 98.1515 184.832L84.9675 180.608L87.7835 131.84H137.832V146.304H96.0395L101.8 140.864L99.7515 174.784L96.9355 171.328C99.3248 169.152 102.098 167.531 105.256 166.464C108.413 165.397 111.464 164.864 114.408 164.864C120.168 164.864 125.266 166.187 129.704 168.832C134.184 171.435 137.682 174.997 140.2 179.52C142.76 184.043 144.04 189.184 144.04 194.944C144.04 200.704 142.546 205.931 139.56 210.624C136.573 215.275 132.626 218.987 127.72 221.76C122.856 224.533 117.522 225.92 111.72 225.92ZM182.944 131.84H198.432L173.856 224H158.368L182.944 131.84ZM219.95 224L251.694 146.432H211.438V131.84H268.207V146.432L236.59 224H219.95Z" fill="white"/>
<defs>
<filter id="filter0_i_474_2" x="6.10352e-05" y="0" width="350" height="354" filterUnits="userSpaceOnUse" color-interpolation-filters="sRGB">
<feFlood flood-opacity="0" result="BackgroundImageFix"/>
<feBlend mode="normal" in="SourceGraphic" in2="BackgroundImageFix" result="shape"/>
<feColorMatrix in="SourceAlpha" type="matrix" values="0 0 0 0 0 0 0 0 0 0 0 0 0 0 0 0 0 0 127 0" result="hardAlpha"/>
<feOffset dy="4"/>
<feGaussianBlur stdDeviation="2"/>
<feComposite in2="hardAlpha" operator="arithmetic" k2="-1" k3="1"/>
<feColorMatrix type="matrix" values="0 0 0 0 0 0 0 0 0 0 0 0 0 0 0 0 0 0 0.25 0"/>
<feBlend mode="normal" in2="shape" result="effect1_innerShadow_474_2"/>
</filter>
<filter id="filter1_i_474_2" x="6.10352e-05" y="0" width="350" height="354" filterUnits="userSpaceOnUse" color-interpolation-filters="sRGB">
<feFlood flood-opacity="0" result="BackgroundImageFix"/>
<feBlend mode="normal" in="SourceGraphic" in2="BackgroundImageFix" result="shape"/>
<feColorMatrix in="SourceAlpha" type="matrix" values="0 0 0 0 0 0 0 0 0 0 0 0 0 0 0 0 0 0 127 0" result="hardAlpha"/>
<feOffset dy="4"/>
<feGaussianBlur stdDeviation="2"/>
<feComposite in2="hardAlpha" operator="arithmetic" k2="-1" k3="1"/>
<feColorMatrix type="matrix" values="0 0 0 0 0 0 0 0 0 0 0 0 0 0 0 0 0 0 0.25 0"/>
<feBlend mode="normal" in2="shape" result="effect1_innerShadow_474_2"/>
</filter>
</defs>
</svg>
