<svg width="350" height="350" viewBox="0 0 350 350" fill="none" xmlns="http://www.w3.org/2000/svg">
<g filter="url(#filter0_i_506_67)">
<path d="M350 175C350 271.65 271.65 350 175 350C78.3502 350 0 271.65 0 175C0 78.3502 78.3502 0 175 0C271.65 0 350 78.3502 350 175ZM41.4029 175C41.4029 248.784 101.216 308.597 175 308.597C248.784 308.597 308.597 248.784 308.597 175C308.597 101.216 248.784 41.4029 175 41.4029C101.216 41.4029 41.4029 101.216 41.4029 175Z" fill="#F1F5EE"/>
</g>
<g filter="url(#filter1_i_506_67)">
<path d="M350 175C350 271.65 271.65 350 175 350C78.3502 350 0 271.65 0 175C0 78.3502 78.3502 0 175 0C271.65 0 350 78.3502 350 175ZM41.4029 175C41.4029 248.784 101.216 308.597 175 308.597C248.784 308.597 308.597 248.784 308.597 175C308.597 101.216 248.784 41.4029 175 41.4029C101.216 41.4029 41.4029 101.216 41.4029 175Z" fill="#F1F5EE"/>
</g>
<path d="M111.572 225.728C106.964 225.728 102.612 224.832 98.516 223.04C94.42 221.248 90.8573 218.709 87.828 215.424C84.8413 212.139 82.6867 208.256 81.364 203.776L96.276 199.744C97.3427 203.413 99.284 206.251 102.1 208.256C104.959 210.219 108.095 211.179 111.508 211.136C114.537 211.136 117.247 210.432 119.636 209.024C122.025 207.616 123.903 205.717 125.268 203.328C126.633 200.896 127.316 198.187 127.316 195.2C127.316 190.635 125.844 186.816 122.9 183.744C119.956 180.672 116.159 179.136 111.508 179.136C110.1 179.136 108.713 179.328 107.348 179.712C106.025 180.096 104.745 180.629 103.508 181.312L96.468 169.152L127.444 142.656L128.788 146.368H84.948V131.84H141.46V146.432L116.564 170.368L116.436 165.824C122.025 166.208 126.783 167.765 130.708 170.496C134.676 173.227 137.705 176.747 139.796 181.056C141.929 185.365 142.996 190.08 142.996 195.2C142.996 201.003 141.567 206.208 138.708 210.816C135.892 215.424 132.095 219.072 127.316 221.76C122.58 224.405 117.332 225.728 111.572 225.728ZM183.131 131.84H198.619L174.043 224H158.555L183.131 131.84ZM220.138 224L251.882 146.432H211.626V131.84H268.394V146.432L236.778 224H220.138Z" fill="white"/>
<path d="M175 20.7014C175 9.26835 184.301 -0.126417 195.654 1.22291C223.952 4.58614 251.112 14.8252 274.703 31.1798C298.295 47.5344 317.411 69.3767 330.488 94.6965C335.734 104.855 330.199 116.86 319.493 120.871V120.871C308.786 124.882 296.99 119.345 291.374 109.386C281.507 91.8849 267.772 76.7536 251.115 65.2059C234.457 53.6583 215.469 46.1044 195.619 43.0035C184.323 41.2389 175 32.1345 175 20.7014V20.7014Z" fill="#FF5656"/>
<path d="M175 20.7014C175 9.26835 184.301 -0.126417 195.654 1.22291C223.952 4.58614 251.112 14.8252 274.703 31.1798C298.295 47.5344 317.411 69.3767 330.488 94.6965C335.734 104.855 330.199 116.86 319.493 120.871V120.871C308.786 124.882 296.99 119.345 291.374 109.386C281.507 91.8849 267.772 76.7536 251.115 65.2059C234.457 53.6583 215.469 46.1044 195.619 43.0035C184.323 41.2389 175 32.1345 175 20.7014V20.7014Z" fill="#FF5656"/>
<path d="M175 20.7014C175 9.26835 184.301 -0.126417 195.654 1.22291C223.952 4.58614 251.112 14.8252 274.703 31.1798C298.295 47.5344 317.411 69.3767 330.488 94.6965C335.734 104.855 330.199 116.86 319.493 120.871V120.871C308.786 124.882 296.99 119.345 291.374 109.386C281.507 91.8849 267.772 76.7536 251.115 65.2059C234.457 53.6583 215.469 46.1044 195.619 43.0035C184.323 41.2389 175 32.1345 175 20.7014V20.7014Z" fill="#FF5656"/>
<path d="M175 20.7014C175 9.26835 184.301 -0.126417 195.654 1.22291C223.952 4.58614 251.112 14.8252 274.703 31.1798C298.295 47.5344 317.411 69.3767 330.488 94.6965C335.734 104.855 330.199 116.86 319.493 120.871V120.871C308.786 124.882 296.99 119.345 291.374 109.386C281.507 91.8849 267.772 76.7536 251.115 65.2059C234.457 53.6583 215.469 46.1044 195.619 43.0035C184.323 41.2389 175 32.1345 175 20.7014V20.7014Z" fill="#FF5656"/>
<path d="M175 20.7014C175 9.26835 184.301 -0.126417 195.654 1.22291C223.952 4.58614 251.112 14.8252 274.703 31.1798C298.295 47.5344 317.411 69.3767 330.488 94.6965C335.734 104.855 330.199 116.86 319.493 120.871V120.871C308.786 124.882 296.99 119.345 291.374 109.386C281.507 91.8849 267.772 76.7536 251.115 65.2059C234.457 53.6583 215.469 46.1044 195.619 43.0035C184.323 41.2389 175 32.1345 175 20.7014V20.7014Z" fill="#FF5656"/>
<path d="M175 20.7014C175 9.26835 184.301 -0.126417 195.654 1.22291C223.952 4.58614 251.112 14.8252 274.703 31.1798C298.295 47.5344 317.411 69.3767 330.488 94.6965C335.734 104.855 330.199 116.86 319.493 120.871V120.871C308.786 124.882 296.99 119.345 291.374 109.386C281.507 91.8849 267.772 76.7536 251.115 65.2059C234.457 53.6583 215.469 46.1044 195.619 43.0035C184.323 41.2389 175 32.1345 175 20.7014V20.7014Z" fill="#FF5656"/>
<path d="M175 20.7014C175 9.26835 184.301 -0.126417 195.654 1.22291C223.952 4.58614 251.112 14.8252 274.703 31.1798C298.295 47.5344 317.411 69.3767 330.488 94.6965C335.734 104.855 330.199 116.86 319.493 120.871V120.871C308.786 124.882 296.99 119.345 291.374 109.386C281.507 91.8849 267.772 76.7536 251.115 65.2059C234.457 53.6583 215.469 46.1044 195.619 43.0035C184.323 41.2389 175 32.1345 175 20.7014V20.7014Z" fill="#FF5656"/>
<path d="M175 20.7014C175 9.26835 184.301 -0.126417 195.654 1.22291C223.952 4.58614 251.112 14.8252 274.703 31.1798C298.295 47.5344 317.411 69.3767 330.488 94.6965C335.734 104.855 330.199 116.86 319.493 120.871V120.871C308.786 124.882 296.99 119.345 291.374 109.386C281.507 91.8849 267.772 76.7536 251.115 65.2059C234.457 53.6583 215.469 46.1044 195.619 43.0035C184.323 41.2389 175 32.1345 175 20.7014V20.7014Z" fill="#FF5656"/>
<path d="M175 20.7014C175 9.26835 184.301 -0.126467 195.654 1.22282C227.863 5.05072 258.522 17.778 284.095 38.1672C315.089 62.8778 336.775 97.3781 345.604 136.021C354.433 174.663 349.881 215.158 332.695 250.877C318.514 280.349 296.424 305.128 269.074 322.564C259.433 328.71 246.975 324.287 242.01 313.988V313.988C237.045 303.69 241.489 291.44 250.898 284.944C269.896 271.829 285.275 253.94 295.386 232.925C308.507 205.657 311.981 174.743 305.241 145.243C298.501 115.743 281.945 89.4045 258.285 70.5402C240.05 56.002 218.428 46.5665 195.619 43.0034C184.323 41.2388 175 32.1345 175 20.7014V20.7014Z" fill="#FF5656"/>
<defs>
<filter id="filter0_i_506_67" x="0" y="0" width="350" height="354" filterUnits="userSpaceOnUse" color-interpolation-filters="sRGB">
<feFlood flood-opacity="0" result="BackgroundImageFix"/>
<feBlend mode="normal" in="SourceGraphic" in2="BackgroundImageFix" result="shape"/>
<feColorMatrix in="SourceAlpha" type="matrix" values="0 0 0 0 0 0 0 0 0 0 0 0 0 0 0 0 0 0 127 0" result="hardAlpha"/>
<feOffset dy="4"/>
<feGaussianBlur stdDeviation="2"/>
<feComposite in2="hardAlpha" operator="arithmetic" k2="-1" k3="1"/>
<feColorMatrix type="matrix" values="0 0 0 0 0 0 0 0 0 0 0 0 0 0 0 0 0 0 0.25 0"/>
<feBlend mode="normal" in2="shape" result="effect1_innerShadow_506_67"/>
</filter>
<filter id="filter1_i_506_67" x="0" y="0" width="350" height="354" filterUnits="userSpaceOnUse" color-interpolation-filters="sRGB">
<feFlood flood-opacity="0" result="BackgroundImageFix"/>
<feBlend mode="normal" in="SourceGraphic" in2="BackgroundImageFix" result="shape"/>
<feColorMatrix in="SourceAlpha" type="matrix" values="0 0 0 0 0 0 0 0 0 0 0 0 0 0 0 0 0 0 127 0" result="hardAlpha"/>
<feOffset dy="4"/>
<feGaussianBlur stdDeviation="2"/>
<feComposite in2="hardAlpha" operator="arithmetic" k2="-1" k3="1"/>
<feColorMatrix type="matrix" values="0 0 0 0 0 0 0 0 0 0 0 0 0 0 0 0 0 0 0.25 0"/>
<feBlend mode="normal" in2="shape" result="effect1_innerShadow_506_67"/>
</filter>
</defs>
</svg>
