<svg width="350" height="350" viewBox="0 0 350 350" fill="none" xmlns="http://www.w3.org/2000/svg">
<g filter="url(#filter0_i_508_15)">
<path d="M350 175C350 271.65 271.65 350 175 350C78.3502 350 0 271.65 0 175C0 78.3502 78.3502 0 175 0C271.65 0 350 78.3502 350 175ZM41.4029 175C41.4029 248.784 101.216 308.597 175 308.597C248.784 308.597 308.597 248.784 308.597 175C308.597 101.216 248.784 41.4029 175 41.4029C101.216 41.4029 41.4029 101.216 41.4029 175Z" fill="#F1F5EE"/>
</g>
<g filter="url(#filter1_i_508_15)">
<path d="M350 175C350 271.65 271.65 350 175 350C78.3502 350 0 271.65 0 175C0 78.3502 78.3502 0 175 0C271.65 0 350 78.3502 350 175ZM41.4029 175C41.4029 248.784 101.216 308.597 175 308.597C248.784 308.597 308.597 248.784 308.597 175C308.597 101.216 248.784 41.4029 175 41.4029C101.216 41.4029 41.4029 101.216 41.4029 175Z" fill="#F1F5EE"/>
</g>
<path d="M92.9385 224L124.683 146.432H84.4265V131.84H141.195V146.432L109.579 224H92.9385ZM180.069 131.84H195.557L170.981 224H155.493L180.069 131.84ZM217.076 224L248.82 146.432H208.564V131.84H265.332V146.432L233.716 224H217.076Z" fill="white"/>
<path d="M175 20.7014C175 9.26835 184.301 -0.126417 195.654 1.22291C223.952 4.58614 251.112 14.8252 274.703 31.1798C298.295 47.5344 317.411 69.3767 330.488 94.6965C335.734 104.855 330.199 116.86 319.493 120.871C308.786 124.882 296.99 119.345 291.374 109.386C281.507 91.8849 267.772 76.7536 251.115 65.2059C234.457 53.6583 215.469 46.1044 195.619 43.0035C184.323 41.2389 175 32.1345 175 20.7014Z" fill="#FF5656"/>
<path d="M175 20.7014C175 9.26835 184.301 -0.126417 195.654 1.22291C223.952 4.58614 251.112 14.8252 274.703 31.1798C298.295 47.5344 317.411 69.3767 330.488 94.6965C335.734 104.855 330.199 116.86 319.493 120.871C308.786 124.882 296.99 119.345 291.374 109.386C281.507 91.8849 267.772 76.7536 251.115 65.2059C234.457 53.6583 215.469 46.1044 195.619 43.0035C184.323 41.2389 175 32.1345 175 20.7014Z" fill="#FF5656"/>
<path d="M175 20.7014C175 9.26835 184.301 -0.126417 195.654 1.22291C223.952 4.58614 251.112 14.8252 274.703 31.1798C298.295 47.5344 317.411 69.3767 330.488 94.6965C335.734 104.855 330.199 116.86 319.493 120.871C308.786 124.882 296.99 119.345 291.374 109.386C281.507 91.8849 267.772 76.7536 251.115 65.2059C234.457 53.6583 215.469 46.1044 195.619 43.0035C184.323 41.2389 175 32.1345 175 20.7014Z" fill="#FF5656"/>
<path d="M175 20.7014C175 9.26835 184.301 -0.126417 195.654 1.22291C223.952 4.58614 251.112 14.8252 274.703 31.1798C298.295 47.5344 317.411 69.3767 330.488 94.6965C335.734 104.855 330.199 116.86 319.493 120.871C308.786 124.882 296.99 119.345 291.374 109.386C281.507 91.8849 267.772 76.7536 251.115 65.2059C234.457 53.6583 215.469 46.1044 195.619 43.0035C184.323 41.2389 175 32.1345 175 20.7014Z" fill="#FF5656"/>
<path d="M175 20.7014C175 9.26835 184.301 -0.126417 195.654 1.22291C223.952 4.58614 251.112 14.8252 274.703 31.1798C298.295 47.5344 317.411 69.3767 330.488 94.6965C335.734 104.855 330.199 116.86 319.493 120.871C308.786 124.882 296.99 119.345 291.374 109.386C281.507 91.8849 267.772 76.7536 251.115 65.2059C234.457 53.6583 215.469 46.1044 195.619 43.0035C184.323 41.2389 175 32.1345 175 20.7014Z" fill="#FF5656"/>
<path d="M175 20.7014C175 9.26835 184.301 -0.126417 195.654 1.22291C223.952 4.58614 251.112 14.8252 274.703 31.1798C298.295 47.5344 317.411 69.3767 330.488 94.6965C335.734 104.855 330.199 116.86 319.493 120.871C308.786 124.882 296.99 119.345 291.374 109.386C281.507 91.8849 267.772 76.7536 251.115 65.2059C234.457 53.6583 215.469 46.1044 195.619 43.0035C184.323 41.2389 175 32.1345 175 20.7014Z" fill="#FF5656"/>
<path d="M175 20.7014C175 9.26835 184.301 -0.126417 195.654 1.22291C223.952 4.58614 251.112 14.8252 274.703 31.1798C298.295 47.5344 317.411 69.3767 330.488 94.6965C335.734 104.855 330.199 116.86 319.493 120.871C308.786 124.882 296.99 119.345 291.374 109.386C281.507 91.8849 267.772 76.7536 251.115 65.2059C234.457 53.6583 215.469 46.1044 195.619 43.0035C184.323 41.2389 175 32.1345 175 20.7014Z" fill="#FF5656"/>
<path d="M175 20.7014C175 9.26835 184.301 -0.126417 195.654 1.22291C223.952 4.58614 251.112 14.8252 274.703 31.1798C298.295 47.5344 317.411 69.3767 330.488 94.6965C335.734 104.855 330.199 116.86 319.493 120.871C308.786 124.882 296.99 119.345 291.374 109.386C281.507 91.8849 267.772 76.7536 251.115 65.2059C234.457 53.6583 215.469 46.1044 195.619 43.0035C184.323 41.2389 175 32.1345 175 20.7014Z" fill="#FF5656"/>
<path d="M350 175C350 271.65 271.65 350 175 350C78.3502 350 0 271.65 0 175C0 78.3502 78.3502 0 175 0C271.65 0 350 78.3502 350 175ZM41.4029 175C41.4029 248.784 101.216 308.597 175 308.597C248.784 308.597 308.597 248.784 308.597 175C308.597 101.216 248.784 41.4029 175 41.4029C101.216 41.4029 41.4029 101.216 41.4029 175Z" fill="#FF5656"/>
<defs>
<filter id="filter0_i_508_15" x="0" y="0" width="350" height="354" filterUnits="userSpaceOnUse" color-interpolation-filters="sRGB">
<feFlood flood-opacity="0" result="BackgroundImageFix"/>
<feBlend mode="normal" in="SourceGraphic" in2="BackgroundImageFix" result="shape"/>
<feColorMatrix in="SourceAlpha" type="matrix" values="0 0 0 0 0 0 0 0 0 0 0 0 0 0 0 0 0 0 127 0" result="hardAlpha"/>
<feOffset dy="4"/>
<feGaussianBlur stdDeviation="2"/>
<feComposite in2="hardAlpha" operator="arithmetic" k2="-1" k3="1"/>
<feColorMatrix type="matrix" values="0 0 0 0 0 0 0 0 0 0 0 0 0 0 0 0 0 0 0.25 0"/>
<feBlend mode="normal" in2="shape" result="effect1_innerShadow_508_15"/>
</filter>
<filter id="filter1_i_508_15" x="0" y="0" width="350" height="354" filterUnits="userSpaceOnUse" color-interpolation-filters="sRGB">
<feFlood flood-opacity="0" result="BackgroundImageFix"/>
<feBlend mode="normal" in="SourceGraphic" in2="BackgroundImageFix" result="shape"/>
<feColorMatrix in="SourceAlpha" type="matrix" values="0 0 0 0 0 0 0 0 0 0 0 0 0 0 0 0 0 0 127 0" result="hardAlpha"/>
<feOffset dy="4"/>
<feGaussianBlur stdDeviation="2"/>
<feComposite in2="hardAlpha" operator="arithmetic" k2="-1" k3="1"/>
<feColorMatrix type="matrix" values="0 0 0 0 0 0 0 0 0 0 0 0 0 0 0 0 0 0 0.25 0"/>
<feBlend mode="normal" in2="shape" result="effect1_innerShadow_508_15"/>
</filter>
</defs>
</svg>
