<svg width="350" height="350" viewBox="0 0 350 350" fill="none" xmlns="http://www.w3.org/2000/svg">
<g filter="url(#filter0_i_474_2)">
<path d="M350 175C350 271.65 271.65 350 175 350C78.3502 350 0 271.65 0 175C0 78.3502 78.3502 0 175 0C271.65 0 350 78.3502 350 175ZM41.4029 175C41.4029 248.784 101.216 308.597 175 308.597C248.784 308.597 308.597 248.784 308.597 175C308.597 101.216 248.784 41.4029 175 41.4029C101.216 41.4029 41.4029 101.216 41.4029 175Z" fill="#F1F5EE"/>
</g>
<g filter="url(#filter1_i_474_2)">
<path d="M350 175C350 271.65 271.65 350 175 350C78.3502 350 0 271.65 0 175C0 78.3502 78.3502 0 175 0C271.65 0 350 78.3502 350 175ZM41.4029 175C41.4029 248.784 101.216 308.597 175 308.597C248.784 308.597 308.597 248.784 308.597 175C308.597 101.216 248.784 41.4029 175 41.4029C101.216 41.4029 41.4029 101.216 41.4029 175Z" fill="#F1F5EE"/>
</g>
<path d="M81.7065 223.872V210.432L121.131 175.296C124.203 172.565 126.336 169.984 127.531 167.552C128.725 165.12 129.323 162.773 129.323 160.512C129.323 157.44 128.661 154.709 127.339 152.32C126.016 149.888 124.181 147.968 121.835 146.56C119.531 145.152 116.864 144.448 113.835 144.448C110.635 144.448 107.797 145.195 105.323 146.688C102.891 148.139 100.992 150.08 99.6265 152.512C98.2612 154.944 97.6212 157.568 97.7065 160.384H81.8345C81.8345 154.24 83.1998 148.885 85.9305 144.32C88.7038 139.755 92.5012 136.213 97.3225 133.696C102.187 131.179 107.797 129.92 114.155 129.92C120.043 129.92 125.333 131.243 130.027 133.888C134.72 136.491 138.411 140.117 141.099 144.768C143.787 149.376 145.131 154.688 145.131 160.704C145.131 165.099 144.533 168.789 143.339 171.776C142.144 174.763 140.352 177.515 137.963 180.032C135.616 182.549 132.693 185.344 129.195 188.416L101.227 213.184L99.8185 209.344H145.131V223.872H81.7065ZM184.069 131.84H199.557L174.981 224H159.493L184.069 131.84ZM221.075 224L252.819 146.432H212.563V131.84H269.332V146.432L237.715 224H221.075Z" fill="white"/>
<path d="M175 20.7014C175 9.26835 184.301 -0.126417 195.654 1.22291C223.952 4.58614 251.112 14.8252 274.703 31.1798C298.295 47.5344 317.411 69.3767 330.488 94.6965C335.734 104.855 330.199 116.86 319.493 120.871C308.786 124.882 296.99 119.345 291.374 109.386C281.507 91.8849 267.772 76.7536 251.115 65.2059C234.457 53.6583 215.469 46.1044 195.619 43.0035C184.323 41.2389 175 32.1345 175 20.7014Z" fill="#FF5656"/>
<path d="M175 20.7014C175 9.26835 184.301 -0.126417 195.654 1.22291C223.952 4.58614 251.112 14.8252 274.703 31.1798C298.295 47.5344 317.411 69.3767 330.488 94.6965C335.734 104.855 330.199 116.86 319.493 120.871C308.786 124.882 296.99 119.345 291.374 109.386C281.507 91.8849 267.772 76.7536 251.115 65.2059C234.457 53.6583 215.469 46.1044 195.619 43.0035C184.323 41.2389 175 32.1345 175 20.7014Z" fill="#FF5656"/>
<path d="M175 20.7014C175 9.26835 184.301 -0.126417 195.654 1.22291C223.952 4.58614 251.112 14.8252 274.703 31.1798C298.295 47.5344 317.411 69.3767 330.488 94.6965C335.734 104.855 330.199 116.86 319.493 120.871C308.786 124.882 296.99 119.345 291.374 109.386C281.507 91.8849 267.772 76.7536 251.115 65.2059C234.457 53.6583 215.469 46.1044 195.619 43.0035C184.323 41.2389 175 32.1345 175 20.7014Z" fill="#FF5656"/>
<path d="M175 20.7014C175 9.26835 184.301 -0.126417 195.654 1.22291C223.952 4.58614 251.112 14.8252 274.703 31.1798C298.295 47.5344 317.411 69.3767 330.488 94.6965C335.734 104.855 330.199 116.86 319.493 120.871C308.786 124.882 296.99 119.345 291.374 109.386C281.507 91.8849 267.772 76.7536 251.115 65.2059C234.457 53.6583 215.469 46.1044 195.619 43.0035C184.323 41.2389 175 32.1345 175 20.7014Z" fill="#FF5656"/>
<path d="M175 20.7014C175 9.26835 184.301 -0.126417 195.654 1.22291C223.952 4.58614 251.112 14.8252 274.703 31.1798C298.295 47.5344 317.411 69.3767 330.488 94.6965C335.734 104.855 330.199 116.86 319.493 120.871C308.786 124.882 296.99 119.345 291.374 109.386C281.507 91.8849 267.772 76.7536 251.115 65.2059C234.457 53.6583 215.469 46.1044 195.619 43.0035C184.323 41.2389 175 32.1345 175 20.7014Z" fill="#FF5656"/>
<path d="M175 20.7014C175 9.26835 184.301 -0.126417 195.654 1.22291C223.952 4.58614 251.112 14.8252 274.703 31.1798C298.295 47.5344 317.411 69.3767 330.488 94.6965C335.734 104.855 330.199 116.86 319.493 120.871C308.786 124.882 296.99 119.345 291.374 109.386C281.507 91.8849 267.772 76.7536 251.115 65.2059C234.457 53.6583 215.469 46.1044 195.619 43.0035C184.323 41.2389 175 32.1345 175 20.7014Z" fill="#FF5656"/>
<path d="M175 20.7014C175 9.26835 184.301 -0.126417 195.654 1.22291C223.952 4.58614 251.112 14.8252 274.703 31.1798C298.295 47.5344 317.411 69.3767 330.488 94.6965C335.734 104.855 330.199 116.86 319.493 120.871C308.786 124.882 296.99 119.345 291.374 109.386C281.507 91.8849 267.772 76.7536 251.115 65.2059C234.457 53.6583 215.469 46.1044 195.619 43.0035C184.323 41.2389 175 32.1345 175 20.7014Z" fill="#FF5656"/>
<path d="M175 20.7014C175 9.26835 184.301 -0.126417 195.654 1.22291C223.952 4.58614 251.112 14.8252 274.703 31.1798C298.295 47.5344 317.411 69.3767 330.488 94.6965C335.734 104.855 330.199 116.86 319.493 120.871C308.786 124.882 296.99 119.345 291.374 109.386C281.507 91.8849 267.772 76.7536 251.115 65.2059C234.457 53.6583 215.469 46.1044 195.619 43.0035C184.323 41.2389 175 32.1345 175 20.7014Z" fill="#FF5656"/>
<path d="M175 20.7014C175 9.26835 184.3 -0.126333 195.653 1.22301C214.793 3.49783 233.475 8.92506 250.926 17.3287C274.612 28.7346 295.424 45.3303 311.816 65.8831C328.207 86.436 339.758 110.418 345.61 136.047C349.921 154.931 351.057 174.351 349.018 193.518C347.808 204.887 336.58 211.864 325.433 209.321V209.321C314.286 206.778 307.484 195.664 308.276 184.258C309.182 171.219 308.172 158.079 305.246 145.263C300.778 125.697 291.96 107.389 279.447 91.6989C266.933 76.0086 251.045 63.3392 232.963 54.6318C221.119 48.9285 208.533 45.0209 195.619 43.0036C184.323 41.239 175 32.1345 175 20.7014V20.7014Z" fill="#FF5656"/>
<path d="M81.7065 223.872V210.432L121.131 175.296C124.203 172.565 126.336 169.984 127.531 167.552C128.725 165.12 129.323 162.773 129.323 160.512C129.323 157.44 128.661 154.709 127.339 152.32C126.016 149.888 124.181 147.968 121.835 146.56C119.531 145.152 116.864 144.448 113.835 144.448C110.635 144.448 107.797 145.195 105.323 146.688C102.891 148.139 100.992 150.08 99.6265 152.512C98.2612 154.944 97.6212 157.568 97.7065 160.384H81.8345C81.8345 154.24 83.1998 148.885 85.9305 144.32C88.7038 139.755 92.5012 136.213 97.3225 133.696C102.187 131.179 107.797 129.92 114.155 129.92C120.043 129.92 125.333 131.243 130.027 133.888C134.72 136.491 138.411 140.117 141.099 144.768C143.787 149.376 145.131 154.688 145.131 160.704C145.131 165.099 144.533 168.789 143.339 171.776C142.144 174.763 140.352 177.515 137.963 180.032C135.616 182.549 132.693 185.344 129.195 188.416L101.227 213.184L99.8185 209.344H145.131V223.872H81.7065ZM184.069 131.84H199.557L174.981 224H159.493L184.069 131.84ZM221.075 224L252.819 146.432H212.563V131.84H269.332V146.432L237.715 224H221.075Z" fill="white"/>
<defs>
<filter id="filter0_i_474_2" x="0" y="0" width="350" height="354" filterUnits="userSpaceOnUse" color-interpolation-filters="sRGB">
<feFlood flood-opacity="0" result="BackgroundImageFix"/>
<feBlend mode="normal" in="SourceGraphic" in2="BackgroundImageFix" result="shape"/>
<feColorMatrix in="SourceAlpha" type="matrix" values="0 0 0 0 0 0 0 0 0 0 0 0 0 0 0 0 0 0 127 0" result="hardAlpha"/>
<feOffset dy="4"/>
<feGaussianBlur stdDeviation="2"/>
<feComposite in2="hardAlpha" operator="arithmetic" k2="-1" k3="1"/>
<feColorMatrix type="matrix" values="0 0 0 0 0 0 0 0 0 0 0 0 0 0 0 0 0 0 0.25 0"/>
<feBlend mode="normal" in2="shape" result="effect1_innerShadow_474_2"/>
</filter>
<filter id="filter1_i_474_2" x="0" y="0" width="350" height="354" filterUnits="userSpaceOnUse" color-interpolation-filters="sRGB">
<feFlood flood-opacity="0" result="BackgroundImageFix"/>
<feBlend mode="normal" in="SourceGraphic" in2="BackgroundImageFix" result="shape"/>
<feColorMatrix in="SourceAlpha" type="matrix" values="0 0 0 0 0 0 0 0 0 0 0 0 0 0 0 0 0 0 127 0" result="hardAlpha"/>
<feOffset dy="4"/>
<feGaussianBlur stdDeviation="2"/>
<feComposite in2="hardAlpha" operator="arithmetic" k2="-1" k3="1"/>
<feColorMatrix type="matrix" values="0 0 0 0 0 0 0 0 0 0 0 0 0 0 0 0 0 0 0.25 0"/>
<feBlend mode="normal" in2="shape" result="effect1_innerShadow_474_2"/>
</filter>
</defs>
</svg>
