<svg width="350" height="350" viewBox="0 0 350 350" fill="none" xmlns="http://www.w3.org/2000/svg">
<g filter="url(#filter0_i_508_2)">
<path d="M350 175C350 271.65 271.65 350 175 350C78.3502 350 0 271.65 0 175C0 78.3502 78.3502 0 175 0C271.65 0 350 78.3502 350 175ZM41.4029 175C41.4029 248.784 101.216 308.597 175 308.597C248.784 308.597 308.597 248.784 308.597 175C308.597 101.216 248.784 41.4029 175 41.4029C101.216 41.4029 41.4029 101.216 41.4029 175Z" fill="#F1F5EE"/>
</g>
<g filter="url(#filter1_i_508_2)">
<path d="M350 175C350 271.65 271.65 350 175 350C78.3502 350 0 271.65 0 175C0 78.3502 78.3502 0 175 0C271.65 0 350 78.3502 350 175ZM41.4029 175C41.4029 248.784 101.216 308.597 175 308.597C248.784 308.597 308.597 248.784 308.597 175C308.597 101.216 248.784 41.4029 175 41.4029C101.216 41.4029 41.4029 101.216 41.4029 175Z" fill="#F1F5EE"/>
</g>
<path d="M114.014 225.92C107.998 225.92 102.579 224.512 97.7575 221.696C92.9788 218.837 89.1815 214.891 86.3655 209.856C83.5495 204.821 82.1415 199.04 82.1415 192.512V164.48C82.1415 157.483 83.5282 151.403 86.3015 146.24C89.1175 141.077 93.0428 137.088 98.0775 134.272C103.155 131.456 109.043 130.048 115.742 130.048C120.392 130.048 124.808 130.837 128.99 132.416C133.171 133.952 136.883 136.427 140.126 139.84L128.99 150.656C127.368 148.736 125.384 147.221 123.038 146.112C120.734 145.003 118.302 144.448 115.742 144.448C112.158 144.448 109.022 145.301 106.334 147.008C103.646 148.672 101.555 150.869 100.062 153.6C98.6108 156.331 97.8855 159.253 97.8855 162.368V177.664L95.0695 174.592C97.7148 171.52 100.894 169.131 104.606 167.424C108.318 165.675 112.2 164.8 116.254 164.8C122.056 164.8 127.176 166.123 131.614 168.768C136.051 171.371 139.55 174.955 142.11 179.52C144.67 184.043 145.95 189.205 145.95 195.008C145.95 200.768 144.478 205.995 141.534 210.688C138.632 215.339 134.771 219.051 129.95 221.824C125.128 224.555 119.816 225.92 114.014 225.92ZM114.014 211.136C117 211.136 119.731 210.432 122.206 209.024C124.68 207.573 126.643 205.632 128.094 203.2C129.587 200.725 130.334 197.995 130.334 195.008C130.334 192.021 129.608 189.291 128.158 186.816C126.707 184.341 124.744 182.379 122.27 180.928C119.838 179.435 117.128 178.688 114.142 178.688C111.155 178.688 108.424 179.435 105.95 180.928C103.475 182.379 101.512 184.341 100.062 186.816C98.6108 189.291 97.8855 192.021 97.8855 195.008C97.8855 197.909 98.5895 200.597 99.9975 203.072C101.448 205.504 103.39 207.467 105.822 208.96C108.296 210.411 111.027 211.136 114.014 211.136ZM185.194 131.84H200.682L176.106 224H160.618L185.194 131.84ZM222.2 224L253.944 146.432H213.688V131.84H270.457V146.432L238.84 224H222.2Z" fill="white"/>
<path d="M175 20.7014C175 9.26835 184.301 -0.126417 195.654 1.22291C223.952 4.58614 251.112 14.8252 274.703 31.1798C298.295 47.5344 317.411 69.3767 330.488 94.6965C335.734 104.855 330.199 116.86 319.493 120.871C308.786 124.882 296.99 119.345 291.374 109.386C281.507 91.8849 267.772 76.7536 251.115 65.2059C234.457 53.6583 215.469 46.1044 195.619 43.0035C184.323 41.2389 175 32.1345 175 20.7014Z" fill="#FF5656"/>
<path d="M175 20.7014C175 9.26835 184.301 -0.126417 195.654 1.22291C223.952 4.58614 251.112 14.8252 274.703 31.1798C298.295 47.5344 317.411 69.3767 330.488 94.6965C335.734 104.855 330.199 116.86 319.493 120.871C308.786 124.882 296.99 119.345 291.374 109.386C281.507 91.8849 267.772 76.7536 251.115 65.2059C234.457 53.6583 215.469 46.1044 195.619 43.0035C184.323 41.2389 175 32.1345 175 20.7014Z" fill="#FF5656"/>
<path d="M175 20.7014C175 9.26835 184.301 -0.126417 195.654 1.22291C223.952 4.58614 251.112 14.8252 274.703 31.1798C298.295 47.5344 317.411 69.3767 330.488 94.6965C335.734 104.855 330.199 116.86 319.493 120.871C308.786 124.882 296.99 119.345 291.374 109.386C281.507 91.8849 267.772 76.7536 251.115 65.2059C234.457 53.6583 215.469 46.1044 195.619 43.0035C184.323 41.2389 175 32.1345 175 20.7014Z" fill="#FF5656"/>
<path d="M175 20.7014C175 9.26835 184.301 -0.126417 195.654 1.22291C223.952 4.58614 251.112 14.8252 274.703 31.1798C298.295 47.5344 317.411 69.3767 330.488 94.6965C335.734 104.855 330.199 116.86 319.493 120.871C308.786 124.882 296.99 119.345 291.374 109.386C281.507 91.8849 267.772 76.7536 251.115 65.2059C234.457 53.6583 215.469 46.1044 195.619 43.0035C184.323 41.2389 175 32.1345 175 20.7014Z" fill="#FF5656"/>
<path d="M175 20.7014C175 9.26835 184.301 -0.126417 195.654 1.22291C223.952 4.58614 251.112 14.8252 274.703 31.1798C298.295 47.5344 317.411 69.3767 330.488 94.6965C335.734 104.855 330.199 116.86 319.493 120.871C308.786 124.882 296.99 119.345 291.374 109.386C281.507 91.8849 267.772 76.7536 251.115 65.2059C234.457 53.6583 215.469 46.1044 195.619 43.0035C184.323 41.2389 175 32.1345 175 20.7014Z" fill="#FF5656"/>
<path d="M175 20.7014C175 9.26835 184.301 -0.126417 195.654 1.22291C223.952 4.58614 251.112 14.8252 274.703 31.1798C298.295 47.5344 317.411 69.3767 330.488 94.6965C335.734 104.855 330.199 116.86 319.493 120.871C308.786 124.882 296.99 119.345 291.374 109.386C281.507 91.8849 267.772 76.7536 251.115 65.2059C234.457 53.6583 215.469 46.1044 195.619 43.0035C184.323 41.2389 175 32.1345 175 20.7014Z" fill="#FF5656"/>
<path d="M175 20.7014C175 9.26835 184.301 -0.126417 195.654 1.22291C223.952 4.58614 251.112 14.8252 274.703 31.1798C298.295 47.5344 317.411 69.3767 330.488 94.6965C335.734 104.855 330.199 116.86 319.493 120.871C308.786 124.882 296.99 119.345 291.374 109.386C281.507 91.8849 267.772 76.7536 251.115 65.2059C234.457 53.6583 215.469 46.1044 195.619 43.0035C184.323 41.2389 175 32.1345 175 20.7014Z" fill="#FF5656"/>
<path d="M175 20.7014C175 9.26835 184.301 -0.126417 195.654 1.22291C223.952 4.58614 251.112 14.8252 274.703 31.1798C298.295 47.5344 317.411 69.3767 330.488 94.6965C335.734 104.855 330.199 116.86 319.493 120.871C308.786 124.882 296.99 119.345 291.374 109.386C281.507 91.8849 267.772 76.7536 251.115 65.2059C234.457 53.6583 215.469 46.1044 195.619 43.0035C184.323 41.2389 175 32.1345 175 20.7014Z" fill="#FF5656"/>
<path d="M175 20.7014C175 9.26835 184.301 -0.126467 195.654 1.22282C227.867 5.05127 258.531 17.7817 284.106 38.1758C315.101 62.8917 336.786 97.399 345.61 136.047C354.434 174.696 349.874 215.195 332.677 250.914C315.48 286.633 286.666 315.454 250.951 332.659C215.236 349.865 174.738 354.434 136.087 345.619C97.437 336.804 62.9247 315.127 38.2015 284.138C13.4783 253.149 0.00932317 214.684 4.83453e-06 175.041C-0.00768413 142.33 9.14915 110.417 26.2332 82.8397C32.2542 73.1205 45.398 71.7028 54.3387 78.8288V78.8288C63.2793 85.9548 64.5879 98.9202 58.9272 108.854C47.4954 128.914 41.3974 151.707 41.4029 175.031C41.41 205.295 51.6923 234.66 70.5663 258.317C89.4403 281.975 115.787 298.523 145.294 305.253C174.8 311.982 205.717 308.494 232.982 295.359C260.247 282.224 282.244 260.222 295.373 232.954C308.501 205.685 311.982 174.768 305.246 145.263C298.509 115.758 281.955 89.4152 258.293 70.5468C240.057 56.0049 218.432 46.5671 195.619 43.0034C184.323 41.2388 175 32.1345 175 20.7014V20.7014Z" fill="#FF5656"/>
<defs>
<filter id="filter0_i_508_2" x="0" y="0" width="350" height="354" filterUnits="userSpaceOnUse" color-interpolation-filters="sRGB">
<feFlood flood-opacity="0" result="BackgroundImageFix"/>
<feBlend mode="normal" in="SourceGraphic" in2="BackgroundImageFix" result="shape"/>
<feColorMatrix in="SourceAlpha" type="matrix" values="0 0 0 0 0 0 0 0 0 0 0 0 0 0 0 0 0 0 127 0" result="hardAlpha"/>
<feOffset dy="4"/>
<feGaussianBlur stdDeviation="2"/>
<feComposite in2="hardAlpha" operator="arithmetic" k2="-1" k3="1"/>
<feColorMatrix type="matrix" values="0 0 0 0 0 0 0 0 0 0 0 0 0 0 0 0 0 0 0.25 0"/>
<feBlend mode="normal" in2="shape" result="effect1_innerShadow_508_2"/>
</filter>
<filter id="filter1_i_508_2" x="0" y="0" width="350" height="354" filterUnits="userSpaceOnUse" color-interpolation-filters="sRGB">
<feFlood flood-opacity="0" result="BackgroundImageFix"/>
<feBlend mode="normal" in="SourceGraphic" in2="BackgroundImageFix" result="shape"/>
<feColorMatrix in="SourceAlpha" type="matrix" values="0 0 0 0 0 0 0 0 0 0 0 0 0 0 0 0 0 0 127 0" result="hardAlpha"/>
<feOffset dy="4"/>
<feGaussianBlur stdDeviation="2"/>
<feComposite in2="hardAlpha" operator="arithmetic" k2="-1" k3="1"/>
<feColorMatrix type="matrix" values="0 0 0 0 0 0 0 0 0 0 0 0 0 0 0 0 0 0 0.25 0"/>
<feBlend mode="normal" in2="shape" result="effect1_innerShadow_508_2"/>
</filter>
</defs>
</svg>
