<svg width="218" height="275" viewBox="0 0 218 275" fill="none" xmlns="http://www.w3.org/2000/svg">
<path d="M4 158.854L13.2981 149.556" stroke="black" stroke-width="2.86096"/>
<path d="M102 15.8543L111.298 6.55615" stroke="black" stroke-width="2.86096"/>
<path d="M102 158.854L111.298 149.556" stroke="black" stroke-width="2.86096"/>
<path d="M15.7219 11.7554H82.2393" stroke="white" stroke-width="20" stroke-linecap="round"/>
<path d="M13.2981 153.848H79.8155" stroke="white" stroke-width="20" stroke-linecap="round"/>
<path d="M111.298 10.8475H177.815" stroke="white" stroke-width="20" stroke-linecap="round"/>
<path d="M111.298 153.848H177.815" stroke="white" stroke-width="20" stroke-linecap="round"/>
<path d="M15 65H81.5174" stroke="white" stroke-width="20" stroke-linecap="round"/>
<path d="M15.7219 121.902H82.2393" stroke="white" stroke-width="20" stroke-linecap="round"/>
<path d="M13.2981 263.995H79.8155" stroke="white" stroke-width="20" stroke-linecap="round"/>
<path d="M111.298 120.995H177.815" stroke="white" stroke-width="20" stroke-linecap="round"/>
<path d="M111.298 263.995H177.815" stroke="white" stroke-width="20" stroke-linecap="round"/>
<path d="M16 12L16 66.3583" stroke="white" stroke-width="20" stroke-linecap="round"/>
<path d="M80.5308 209.636V263.995" stroke="white" stroke-width="20" stroke-linecap="round"/>
<path d="M178.531 66.6364V120.995" stroke="white" stroke-width="20" stroke-linecap="round"/>
<path d="M178.531 209.636V263.995" stroke="white" stroke-width="20" stroke-linecap="round"/>
<path d="M13.2981 155.278L13.2981 209.636" stroke="white" stroke-width="20" stroke-linecap="round"/>
<path d="M111.298 12.2781V66.6364" stroke="white" stroke-width="20" stroke-linecap="round"/>
<path d="M111.298 155.278V209.636" stroke="white" stroke-width="20" stroke-linecap="round"/>
<path d="M80.5308 153.848V208.206" stroke="white" stroke-width="20" stroke-linecap="round"/>
<path d="M178.531 10.8475V65.2058" stroke="white" stroke-width="20" stroke-linecap="round"/>
<path d="M178.531 153.848V208.206" stroke="white" stroke-width="20" stroke-linecap="round"/>
<path d="M82 65V119.358" stroke="white" stroke-width="20" stroke-linecap="round"/>
<path d="M16 67L16 121.358" stroke="white" stroke-width="20" stroke-linecap="round"/>
<path d="M13.2981 208.206L13.2981 262.564" stroke="white" stroke-width="20" stroke-linecap="round"/>
<path d="M111.298 65.2058V119.564" stroke="white" stroke-width="20" stroke-linecap="round"/>
<path d="M111.298 208.206V262.564" stroke="white" stroke-width="20" stroke-linecap="round"/>
<path d="M71 75L86 60" stroke="#ACABAB" stroke-width="10" stroke-linecap="round"/>
<path d="M12 127L27 112" stroke="#ACABAB" stroke-width="10" stroke-linecap="round"/>
<path d="M70.3784 163L85.3784 148" stroke="#ACABAB" stroke-width="10" stroke-linecap="round"/>
<path d="M168.378 20L183.378 5" stroke="#ACABAB" stroke-width="10" stroke-linecap="round"/>
<path d="M168.378 163L183.378 148" stroke="#ACABAB" stroke-width="10" stroke-linecap="round"/>
<path d="M7.61768 269.821L22.6177 254.821" stroke="#ACABAB" stroke-width="10" stroke-linecap="round"/>
<path d="M105.618 126.821L120.618 111.821" stroke="#ACABAB" stroke-width="10" stroke-linecap="round"/>
<path d="M105.618 269.821L120.618 254.821" stroke="#ACABAB" stroke-width="10" stroke-linecap="round"/>
<path d="M9 71.1644L22 58.1644" stroke="#ACABAB" stroke-width="10" stroke-linecap="round"/>
<path d="M9.67651 58L22.6765 71" stroke="#ACABAB" stroke-width="10" stroke-linecap="round"/>
<path d="M7.61768 148.377L22.6177 163.377" stroke="#ACABAB" stroke-width="10" stroke-linecap="round"/>
<path d="M105.618 5.37695L120.618 20.377" stroke="#ACABAB" stroke-width="10" stroke-linecap="round"/>
<path d="M105.618 148.377L120.618 163.377" stroke="#ACABAB" stroke-width="10" stroke-linecap="round"/>
<path d="M71.6177 254.377L86.6177 269.377" stroke="#ACABAB" stroke-width="10" stroke-linecap="round"/>
<path d="M169.618 111.377L184.618 126.377" stroke="#ACABAB" stroke-width="10" stroke-linecap="round"/>
<path d="M169.618 254.377L184.618 269.377" stroke="#ACABAB" stroke-width="10" stroke-linecap="round"/>
<path d="M73 113L87 127" stroke="#ACABAB" stroke-width="10" stroke-linecap="round"/>
<path d="M13 7L27 21" stroke="#ACABAB" stroke-width="10" stroke-linecap="round"/>
<path d="M72.6177 208.377H88.6177" stroke="#ACABAB" stroke-width="10" stroke-linecap="round"/>
<path d="M170.618 65.377H186.618" stroke="#ACABAB" stroke-width="10" stroke-linecap="round"/>
<path d="M170.618 208.377H186.618" stroke="#ACABAB" stroke-width="10" stroke-linecap="round"/>
<path d="M5.4198 208.377H21.4198" stroke="#ACABAB" stroke-width="10" stroke-linecap="round"/>
<path d="M103.42 65.377H119.42" stroke="#ACABAB" stroke-width="10" stroke-linecap="round"/>
<path d="M103.42 208.377H119.42" stroke="#ACABAB" stroke-width="10" stroke-linecap="round"/>
<circle cx="208" cy="103" r="10" fill="#ACABAB"/>
<circle cx="208" cy="164.511" r="10" fill="#ACABAB"/>
</svg>
